<svg id="Layer_1" data-name="Layer 1" xmlns="http://www.w3.org/2000/svg" viewBox="0 0 368 368"><defs><style>.cls-1{fill:#1282bf;}.cls-2{fill:none;stroke:#1282bf;stroke-miterlimit:10;}</style></defs><title>banerimg1</title><path class="cls-1" d="M32.38,49.25h0Z"/><path class="cls-1" d="M25.91,19.42A25.9,25.9,0,1,0,51.74,46.31,25.79,25.79,0,0,0,25.91,19.42ZM37.86,58a2.8,2.8,0,0,1-3,2.92H16.73a2.79,2.79,0,0,1-2.79-2.77c0-2.71,0-5.42,0-8.13V45.57h0V40.13c0-1.63,0-3.25,0-4.88,0-1,0-2.07,0-3.1a2.82,2.82,0,0,1,2.64-2.46c4.28,0,8.55,0,12.83,0a2.12,2.12,0,0,1,1.26.55c2.22,2.14,4.41,4.32,6.61,6.49a1.91,1.91,0,0,1,.57,1.42Q37.85,48.1,37.86,58Z"/><path class="cls-1" d="M35.19,38.8c-1.1,0-2.2,0-3.31,0a3,3,0,0,1-3.25-3.33c0-1,0-2.11,0-3.16,0-.5-.16-.62-.64-.62-3.63,0-7.27,0-10.9,0-.87,0-1.15.28-1.15,1.16V45.3h0V57.77c0,.87.28,1.17,1.15,1.17H34.77c.76,0,1.06-.3,1.06-1.08,0-6.15,0-12.29,0-18.44C35.85,38.89,35.66,38.78,35.19,38.8Zm-16.65-2a1.5,1.5,0,0,1,.48-.68c.1-.1.32-.08.49-.08H24.9a1.8,1.8,0,0,1,.4,0,.73.73,0,0,1,.64.79.66.66,0,0,1-.68.68c-1,0-2,0-3,0v0H19.77a3.35,3.35,0,0,1-.71-.06A.6.6,0,0,1,18.54,36.81Zm0,4.31a.63.63,0,0,1,.67-.63c1.23,0,2.47,0,3.7,0h3v0h5.48c.31,0,.61,0,.92,0,.65,0,1,.29,1,.79s-.34.73-1,.73c-1.21,0-2.41,0-3.61,0h-9a3.68,3.68,0,0,1-.66-.06A.67.67,0,0,1,18.53,41.12Zm.94,3.75H32.34c.61,0,.91.24.93.7s-.33.79-.92.79H19.47c-.61,0-.95-.29-.95-.76S18.82,44.87,19.47,44.87Zm13.2,10.24a2.15,2.15,0,0,1-.51,0H19.69a2.6,2.6,0,0,1-.56,0,.7.7,0,0,1-.6-.82.69.69,0,0,1,.71-.65c.46,0,.92,0,1.38,0H32.13a3.38,3.38,0,0,1,.45,0,.7.7,0,0,1,.68.7A.71.71,0,0,1,32.67,55.11Zm.58-5c-.12.47-.5.6-.94.6H20c-.24,0-.47,0-.71,0a.76.76,0,0,1-.76-.79c0-.43.32-.69.83-.7h13C33,49.25,33.38,49.65,33.25,50.15Z"/><path class="cls-1" d="M121.8,79.09h0Z"/><path class="cls-1" d="M115.34,49.25a25.9,25.9,0,1,0,25.82,26.89A25.8,25.8,0,0,0,115.34,49.25Zm11.94,38.61a2.8,2.8,0,0,1-3,2.93H106.15A2.8,2.8,0,0,1,103.36,88c0-2.71,0-5.42,0-8.13V75.4h0c0-1.81,0-3.62,0-5.44,0-1.62,0-3.25,0-4.88,0-1,0-2.07,0-3.1A2.81,2.81,0,0,1,106,59.53c4.28,0,8.55,0,12.83,0a2,2,0,0,1,1.26.54c2.23,2.14,4.41,4.33,6.61,6.49a1.91,1.91,0,0,1,.57,1.42Z"/><path class="cls-1" d="M124.62,68.63c-1.11,0-2.21,0-3.31,0a3,3,0,0,1-3.25-3.33c0-1,0-2.1,0-3.16,0-.5-.16-.62-.64-.62-3.63,0-7.26,0-10.89,0-.88,0-1.16.28-1.16,1.16V75.13h0V87.61c0,.86.29,1.16,1.15,1.16h17.67c.77,0,1.07-.31,1.07-1.09,0-6.14,0-12.29,0-18.43C125.27,68.73,125.08,68.62,124.62,68.63Zm-16.66-2a1.55,1.55,0,0,1,.48-.69c.11-.1.33-.08.49-.08h5.39a1.75,1.75,0,0,1,.4,0,.7.7,0,0,1,.64.78.66.66,0,0,1-.68.68c-1,0-2,0-3,0v0h-2.49a3.26,3.26,0,0,1-.7-.07A.59.59,0,0,1,108,66.65Zm0,4.3a.64.64,0,0,1,.67-.63l3.71,0c1,0,2,0,3,0v0h5.48c.31,0,.61,0,.92,0,.66,0,1,.28,1,.78s-.34.73-1,.74H109.16a2.81,2.81,0,0,1-.65-.06A.66.66,0,0,1,108,71Zm.94,3.75h12.88c.6,0,.91.24.92.7s-.33.8-.92.8H108.89c-.61,0-1-.29-1-.75S108.25,74.71,108.89,74.7Zm13.2,10.24a1.73,1.73,0,0,1-.51,0c-2.1,0-4.21,0-6.31,0s-4.11,0-6.16,0a2.6,2.6,0,0,1-.56,0,.74.74,0,0,1,.12-1.47c.45,0,.91,0,1.37,0h11.51a3.53,3.53,0,0,1,.46,0,.7.7,0,0,1,.68.69A.72.72,0,0,1,122.09,84.94Zm.58-5a.84.84,0,0,1-.94.61H109.41a5.67,5.67,0,0,1-.71,0,.75.75,0,0,1-.76-.78c0-.44.32-.7.83-.7h13C122.42,79.09,122.81,79.48,122.67,80Z"/><path class="cls-1" d="M164.11,166.47h0Z"/><path class="cls-1" d="M157.65,136.64a25.9,25.9,0,1,0,25.82,26.88A25.8,25.8,0,0,0,157.65,136.64Zm11.94,38.6a2.8,2.8,0,0,1-3,2.93H148.46a2.79,2.79,0,0,1-2.79-2.77c0-2.72,0-5.43,0-8.14v-4.47h0c0-1.82,0-3.63,0-5.44,0-1.63,0-3.26,0-4.88,0-1,0-2.07,0-3.1a2.81,2.81,0,0,1,2.64-2.46c4.28,0,8.56,0,12.83,0a2,2,0,0,1,1.26.55c2.23,2.14,4.41,4.32,6.61,6.49a1.86,1.86,0,0,1,.57,1.41Q169.59,165.31,169.59,175.24Z"/><path class="cls-1" d="M166.93,156c-1.11,0-2.21,0-3.31,0a3,3,0,0,1-3.25-3.33c0-1.05,0-2.1,0-3.15,0-.51-.16-.63-.64-.63-3.63,0-7.26,0-10.89,0-.88,0-1.15.28-1.15,1.15q0,6.22,0,12.43h0V175c0,.87.29,1.16,1.15,1.16H166.5c.77,0,1.07-.31,1.07-1.08,0-6.15,0-12.3,0-18.44C167.58,156.11,167.39,156,166.93,156Zm-16.66-2a1.5,1.5,0,0,1,.49-.69c.1-.09.32-.08.48-.08h5.39a1.84,1.84,0,0,1,.41,0,.71.71,0,0,1,.63.79.65.65,0,0,1-.68.67c-1,0-2,0-3,0v0c-.83,0-1.66,0-2.49,0a3.26,3.26,0,0,1-.7-.06A.6.6,0,0,1,150.27,154Zm0,4.31a.63.63,0,0,1,.67-.63c1.23,0,2.47,0,3.71-.05h3v0h5.48c.31,0,.61,0,.92,0,.66,0,1,.29,1,.78s-.34.73-1,.74H151.47a2.81,2.81,0,0,1-.65-.06A.66.66,0,0,1,150.26,158.34Zm.94,3.75h12.88c.6,0,.91.23.92.7s-.33.79-.92.79H151.2c-.61,0-.95-.28-.95-.75S150.56,162.09,151.2,162.09Zm13.2,10.23a1.73,1.73,0,0,1-.51,0H151.42a2.09,2.09,0,0,1-.56,0,.71.71,0,0,1-.6-.81.68.68,0,0,1,.72-.65c.45,0,.91,0,1.37,0h11.51a3.53,3.53,0,0,1,.46,0,.7.7,0,0,1,.68.69A.72.72,0,0,1,164.4,172.32Zm.58-5c-.12.48-.5.61-.94.61H151.73a5.77,5.77,0,0,1-.72,0,.75.75,0,0,1-.76-.78c0-.44.32-.7.83-.7h13C164.73,166.47,165.12,166.86,165,167.36Z"/><path class="cls-1" d="M60.38,217.93h0Z"/><path class="cls-1" d="M53.91,188.1A25.9,25.9,0,1,0,79.74,215,25.79,25.79,0,0,0,53.91,188.1Zm12,38.6a2.81,2.81,0,0,1-3,2.93H44.73a2.79,2.79,0,0,1-2.79-2.77c0-2.71,0-5.42,0-8.14v-4.47h0v-5.44c0-1.63,0-3.25,0-4.88,0-1,0-2.07.05-3.1a2.82,2.82,0,0,1,2.64-2.46c4.28,0,8.55,0,12.83,0a2.12,2.12,0,0,1,1.26.55c2.22,2.14,4.41,4.32,6.61,6.49a1.9,1.9,0,0,1,.57,1.42Q65.85,216.78,65.86,226.7Z"/><path class="cls-1" d="M63.19,207.47c-1.1,0-2.2,0-3.3,0a3,3,0,0,1-3.26-3.33c0-1.06,0-2.11,0-3.16,0-.5-.16-.63-.64-.62H45.1c-.87,0-1.15.28-1.15,1.16V214h0v12.48c0,.87.28,1.16,1.15,1.16H62.77c.77,0,1.06-.3,1.06-1.08,0-6.15,0-12.29,0-18.44C63.85,207.57,63.66,207.46,63.19,207.47Zm-16.65-2a1.52,1.52,0,0,1,.48-.69c.1-.09.32-.08.49-.08H52.9a1.8,1.8,0,0,1,.4,0,.73.73,0,0,1,.64.79.64.64,0,0,1-.68.67c-1,0-2,0-3,0v0H47.77a3.35,3.35,0,0,1-.71-.06A.6.6,0,0,1,46.54,205.49Zm0,4.31a.64.64,0,0,1,.67-.63l3.7,0h3v0h5.48c.31,0,.61,0,.92,0,.65,0,1,.29,1,.79s-.34.73-1,.73c-1.21,0-2.41,0-3.61,0H47.74a3.67,3.67,0,0,1-.66,0A.67.67,0,0,1,46.53,209.8Zm.94,3.75H60.34c.61,0,.91.23.93.7s-.33.79-.92.79c-4.29,0-8.59,0-12.88,0-.61,0-.95-.29-.95-.76S46.82,213.55,47.47,213.55Zm13.2,10.24a2.15,2.15,0,0,1-.51,0H47.69a2.09,2.09,0,0,1-.56,0,.69.69,0,0,1-.6-.81.68.68,0,0,1,.71-.65c.46,0,.92,0,1.38,0H60.13a3.38,3.38,0,0,1,.45,0,.7.7,0,0,1,.68.7A.71.71,0,0,1,60.67,223.79Zm.58-5c-.12.47-.5.6-.94.6H48c-.23,0-.47,0-.71,0a.76.76,0,0,1-.76-.79.73.73,0,0,1,.83-.7h13C61,217.93,61.38,218.32,61.25,218.83Z"/><path class="cls-1" d="M131.73,333.34h0Z"/><path class="cls-1" d="M125.27,303.5a25.9,25.9,0,1,0,25.82,26.89A25.8,25.8,0,0,0,125.27,303.5Zm11.94,38.61a2.8,2.8,0,0,1-3,2.93H116.08a2.79,2.79,0,0,1-2.79-2.77c0-2.72,0-5.43,0-8.14v-4.47h0v-5.44c0-1.63,0-3.26,0-4.89,0-1,0-2.07,0-3.09a2.81,2.81,0,0,1,2.65-2.46c4.27,0,8.55,0,12.82,0a2,2,0,0,1,1.26.55c2.23,2.13,4.41,4.32,6.61,6.49a1.85,1.85,0,0,1,.58,1.41C137.21,328.87,137.22,335.49,137.21,342.11Z"/><path class="cls-1" d="M134.55,322.88c-1.1,0-2.21,0-3.31,0a3,3,0,0,1-3.25-3.33c0-1.05,0-2.1,0-3.15,0-.51-.17-.63-.65-.63-3.63,0-7.26,0-10.89,0-.88,0-1.15.27-1.15,1.15v12.43h0q0,6.24,0,12.48c0,.87.29,1.16,1.15,1.16h17.67c.77,0,1.07-.31,1.07-1.09,0-6.14,0-12.29,0-18.43C135.2,323,135,322.87,134.55,322.88Zm-16.65-2a1.47,1.47,0,0,1,.48-.69c.1-.09.32-.08.49-.08h5.38a1.84,1.84,0,0,1,.41,0,.7.7,0,0,1,.63.78.65.65,0,0,1-.68.68c-1,0-2,0-3,0v0h-2.49a3.31,3.31,0,0,1-.7-.06A.6.6,0,0,1,117.9,320.9Zm0,4.3a.64.64,0,0,1,.67-.63l3.71,0h3v0h5.49c.3,0,.61,0,.91,0,.66,0,1,.29,1,.78s-.34.73-1,.74H119.09a2.81,2.81,0,0,1-.65-.06A.68.68,0,0,1,117.88,325.2Zm.94,3.76H131.7c.6,0,.91.23.92.69s-.33.8-.92.8H118.83c-.62,0-1-.28-1-.75S118.18,329,118.82,329ZM132,339.19a2.11,2.11,0,0,1-.5,0H119a2.11,2.11,0,0,1-.56,0,.71.71,0,0,1-.6-.81.7.7,0,0,1,.72-.66c.46,0,.92,0,1.37,0h11.51a3.53,3.53,0,0,1,.46,0,.74.74,0,0,1,.08,1.46Zm.59-5a.84.84,0,0,1-1,.61H119.35a5.56,5.56,0,0,1-.71,0,.74.74,0,0,1-.76-.78c0-.44.31-.7.82-.7h13C132.35,333.34,132.74,333.73,132.61,334.23Z"/><path class="cls-1" d="M253.83,243.83h0Z"/><path class="cls-1" d="M247.36,214a25.9,25.9,0,1,0,25.83,26.88A25.79,25.79,0,0,0,247.36,214Zm11.94,38.6a2.79,2.79,0,0,1-2.95,2.93H238.18a2.79,2.79,0,0,1-2.79-2.77c0-2.71,0-5.42,0-8.14v-4.47h0v-5.44c0-1.63,0-3.26,0-4.88,0-1,0-2.07.05-3.1a2.82,2.82,0,0,1,2.64-2.46c4.27,0,8.55,0,12.83,0a2.06,2.06,0,0,1,1.25.55c2.23,2.14,4.42,4.32,6.62,6.49a1.89,1.89,0,0,1,.57,1.41C259.3,239.36,259.31,246,259.3,252.6Z"/><path class="cls-1" d="M256.64,233.37c-1.1,0-2.2,0-3.31,0a3,3,0,0,1-3.25-3.33c0-1.06,0-2.11,0-3.16,0-.5-.16-.63-.64-.62h-10.9c-.87,0-1.15.28-1.15,1.16v12.42h0v12.48c0,.87.28,1.16,1.15,1.16h17.66c.77,0,1.07-.3,1.07-1.08q0-9.23,0-18.44C257.3,233.47,257.11,233.36,256.64,233.37Zm-16.65-2a1.52,1.52,0,0,1,.48-.69c.1-.09.32-.08.49-.08h5.39a1.8,1.8,0,0,1,.4,0,.71.71,0,0,1,.63.79.63.63,0,0,1-.68.67c-1,0-2,0-3,0v0h-2.49a3.35,3.35,0,0,1-.71-.06A.6.6,0,0,1,240,231.39Zm0,4.31a.62.62,0,0,1,.66-.63l3.71,0h3v0h5.48c.3,0,.61,0,.91,0,.66,0,1,.29,1,.79s-.35.73-1,.73c-1.21,0-2.41,0-3.61,0h-8.95a2.9,2.9,0,0,1-.66-.06A.66.66,0,0,1,240,235.7Zm.93,3.75h12.88c.61,0,.91.23.93.7s-.34.79-.92.79H240.92c-.61,0-.95-.29-.95-.76S240.27,239.45,240.91,239.45Zm13.2,10.24a2.07,2.07,0,0,1-.5,0H241.13a2,2,0,0,1-.55,0,.69.69,0,0,1-.6-.81.67.67,0,0,1,.71-.65c.46,0,.92,0,1.38,0h11.5a3.49,3.49,0,0,1,.46,0,.7.7,0,0,1,.68.69A.71.71,0,0,1,254.11,249.69Zm.59-5a.84.84,0,0,1-.94.6H241.44c-.24,0-.48,0-.71,0a.76.76,0,0,1-.76-.79.73.73,0,0,1,.83-.7h13C254.45,243.83,254.83,244.22,254.7,244.73Z"/><path class="cls-1" d="M293.6,140.57h0Z"/><path class="cls-1" d="M287.14,110.74A25.9,25.9,0,1,0,313,137.62,25.78,25.78,0,0,0,287.14,110.74Zm11.94,38.6a2.8,2.8,0,0,1-2.95,2.93H278a2.79,2.79,0,0,1-2.79-2.77c0-2.71,0-5.43,0-8.14v-4.47h0v-5.44c0-1.63,0-3.26,0-4.88,0-1,0-2.07,0-3.1a2.82,2.82,0,0,1,2.64-2.46c4.28,0,8.56,0,12.83,0a2,2,0,0,1,1.26.55c2.23,2.14,4.41,4.32,6.61,6.49a1.82,1.82,0,0,1,.57,1.41Q299.08,139.41,299.08,149.34Z"/><path class="cls-1" d="M296.42,130.11c-1.1,0-2.21,0-3.31,0a3,3,0,0,1-3.25-3.33c0-1.05,0-2.1,0-3.15,0-.51-.17-.63-.65-.63-3.63,0-7.26,0-10.89,0-.88,0-1.15.28-1.15,1.15v12.43h0v12.48c0,.87.29,1.16,1.15,1.16H296c.77,0,1.07-.3,1.07-1.08,0-6.15,0-12.3,0-18.44C297.07,130.21,296.88,130.1,296.42,130.11Zm-16.65-2a1.41,1.41,0,0,1,.48-.69c.1-.09.32-.08.49-.08h5.38a1.84,1.84,0,0,1,.41,0,.71.71,0,0,1,.63.79.65.65,0,0,1-.68.67c-1,0-2,0-3,0v0c-.83,0-1.66,0-2.49,0a3.31,3.31,0,0,1-.7-.06A.6.6,0,0,1,279.77,128.13Zm0,4.31a.63.63,0,0,1,.67-.63c1.24,0,2.47,0,3.71-.05h3v0h5.49c.3,0,.61,0,.91,0,.66,0,1,.29,1,.78s-.34.73-1,.74H281a2.81,2.81,0,0,1-.65-.06A.67.67,0,0,1,279.75,132.44Zm.94,3.75h12.88c.6,0,.91.23.92.7s-.33.79-.92.79H280.7c-.62,0-.95-.28-.95-.75S280.05,136.19,280.69,136.19Zm13.2,10.23a1.73,1.73,0,0,1-.51,0H280.91a2.09,2.09,0,0,1-.56,0,.71.71,0,0,1-.6-.81.68.68,0,0,1,.72-.65c.46,0,.91,0,1.37,0h11.51a3.53,3.53,0,0,1,.46,0,.7.7,0,0,1,.68.69A.72.72,0,0,1,293.89,146.42Zm.59-5a.84.84,0,0,1-1,.61H281.22a5.77,5.77,0,0,1-.72,0,.75.75,0,0,1-.76-.78.73.73,0,0,1,.83-.7h13C294.22,140.57,294.61,141,294.48,141.46Z"/><path class="cls-1" d="M348.61,29.83h0Z"/><path class="cls-1" d="M342.15,0A25.9,25.9,0,1,0,368,26.89,25.79,25.79,0,0,0,342.15,0Zm11.94,38.61a2.79,2.79,0,0,1-2.95,2.92H333a2.8,2.8,0,0,1-2.8-2.77c0-2.71,0-5.42,0-8.13V26.15h0V20.71c0-1.63,0-3.25,0-4.88,0-1,0-2.07,0-3.1a2.84,2.84,0,0,1,2.65-2.46c4.27,0,8.55,0,12.82,0a2.07,2.07,0,0,1,1.26.55c2.23,2.14,4.42,4.32,6.61,6.49a1.89,1.89,0,0,1,.58,1.42C354.09,25.37,354.1,32,354.09,38.61Z"/><path class="cls-1" d="M351.43,19.38c-1.1,0-2.21,0-3.31,0a3,3,0,0,1-3.25-3.33c0-1,0-2.11,0-3.16,0-.5-.17-.62-.65-.62-3.63,0-7.26,0-10.89,0-.88,0-1.15.28-1.15,1.16V25.88h0V38.35c0,.87.28,1.17,1.14,1.17H351c.77,0,1.07-.3,1.07-1.08q0-9.22,0-18.44C352.08,19.47,351.89,19.36,351.43,19.38Zm-16.65-2a1.5,1.5,0,0,1,.48-.68c.1-.1.32-.08.49-.08h5.39a1.36,1.36,0,0,1,.4,0,.7.7,0,0,1,.63.78.65.65,0,0,1-.68.68c-1,0-2,0-3,0v0H336a3.31,3.31,0,0,1-.7-.06A.6.6,0,0,1,334.78,17.39Zm0,4.31a.64.64,0,0,1,.67-.63c1.24,0,2.47,0,3.71,0h3v0h5.49l.91,0c.66,0,1,.29,1,.79s-.34.73-1,.73c-1.2,0-2.4,0-3.61,0H336a3.57,3.57,0,0,1-.65-.06A.68.68,0,0,1,334.76,21.7Zm.94,3.75h12.88c.6,0,.91.24.92.7s-.33.79-.92.79H335.71c-.62,0-.95-.29-.95-.76S335.06,25.45,335.7,25.45Zm13.2,10.24a2.07,2.07,0,0,1-.5,0H335.92a2.51,2.51,0,0,1-.55,0,.72.72,0,0,1-.61-.82.7.7,0,0,1,.72-.65c.46,0,.92,0,1.37,0h11.51a3.53,3.53,0,0,1,.46,0,.74.74,0,0,1,.08,1.47Zm.59-5c-.13.47-.5.6-.95.6H336.23c-.24,0-.48,0-.71,0a.76.76,0,0,1-.76-.79c0-.43.31-.69.82-.7h13C349.23,29.83,349.62,30.23,349.49,30.73Z"/><path class="cls-1" d="M328.72,346h0Z"/><path class="cls-1" d="M322.25,316.2a25.9,25.9,0,1,0,25.83,26.89A25.79,25.79,0,0,0,322.25,316.2Zm11.94,38.61a2.8,2.8,0,0,1-2.95,2.93H313.07a2.8,2.8,0,0,1-2.8-2.77c0-2.71,0-5.42,0-8.13,0-1.5,0-3,0-4.48h0v-5.44c0-1.63,0-3.25,0-4.88,0-1,0-2.07.05-3.1a2.8,2.8,0,0,1,2.64-2.45c4.27,0,8.55,0,12.83,0A2.06,2.06,0,0,1,327,327c2.23,2.14,4.42,4.32,6.62,6.49a1.91,1.91,0,0,1,.57,1.42C334.19,341.57,334.2,348.19,334.19,354.81Z"/><path class="cls-1" d="M331.53,335.58c-1.1,0-2.2,0-3.31,0a3,3,0,0,1-3.25-3.33c0-1.05,0-2.11,0-3.16,0-.5-.17-.62-.64-.62-3.64,0-7.27,0-10.9,0-.87,0-1.15.28-1.15,1.16v12.43h0v12.47c0,.87.28,1.17,1.15,1.17H331.1c.77,0,1.07-.3,1.07-1.08q0-9.21,0-18.44C332.19,335.68,332,335.57,331.53,335.58Zm-16.65-2a1.5,1.5,0,0,1,.48-.68c.1-.1.32-.08.49-.08h5.39a1.81,1.81,0,0,1,.4,0,.7.7,0,0,1,.63.78.65.65,0,0,1-.68.68c-1,0-2,0-3,0v0h-2.49a3.35,3.35,0,0,1-.71-.06A.6.6,0,0,1,314.88,333.59Zm0,4.31a.62.62,0,0,1,.66-.63c1.24,0,2.48,0,3.71,0h3v0h5.48l.91,0c.66,0,1,.29,1,.79s-.34.73-1,.74H316.08a3.6,3.6,0,0,1-.66-.06A.66.66,0,0,1,314.87,337.9Zm.93,3.75h12.88c.6,0,.91.24.93.7s-.34.79-.92.79H315.81c-.61,0-.95-.29-.95-.76S315.16,341.65,315.8,341.65ZM329,351.89a2.07,2.07,0,0,1-.5,0H316a2.51,2.51,0,0,1-.55,0,.72.72,0,0,1-.61-.82.7.7,0,0,1,.72-.65c.46,0,.92,0,1.38,0h11.5a3.49,3.49,0,0,1,.46,0,.74.74,0,0,1,.08,1.47Zm.59-5a.86.86,0,0,1-.94.61H316.33a5.56,5.56,0,0,1-.71,0,.76.76,0,0,1-.76-.79c0-.43.31-.69.83-.7h13C329.34,346,329.72,346.43,329.59,346.93Z"/><line class="cls-2" x1="50.95" y1="51.8" x2="90.77" y2="66.86"/><line class="cls-2" x1="137.12" y1="66.86" x2="316.24" y2="25.88"/><line class="cls-2" x1="324.96" y1="45.32" x2="301.42" y2="118.26"/><line class="cls-2" x1="125.27" y1="99.08" x2="151.12" y2="137.45"/><line class="cls-2" x1="25.82" y1="71.22" x2="53.91" y2="188.1"/><line class="cls-2" x1="63.85" y1="237.92" x2="107.75" y2="310.26"/><line class="cls-2" x1="148.96" y1="318.99" x2="225.29" y2="253.51"/><line class="cls-2" x1="146.16" y1="333.34" x2="296.34" y2="342.08"/><line class="cls-2" x1="342.06" y1="51.8" x2="332.15" y2="318.99"/><line class="cls-2" x1="312.99" y1="318.99" x2="269.36" y2="253.51"/><line class="cls-2" x1="257.29" y1="215.97" x2="287.05" y2="162.53"/><line class="cls-2" x1="125.27" y1="303.5" x2="148.96" y2="186.95"/><line class="cls-2" x1="179.65" y1="176.15" x2="228.57" y2="222.01"/><line class="cls-2" x1="261.23" y1="136.62" x2="179.65" y2="162.53"/><line class="cls-2" x1="77.96" y1="204.45" x2="132.02" y2="166.47"/><line class="cls-2" x1="135.2" y1="75.15" x2="269.36" y2="117.74"/><line class="cls-2" x1="247.36" y1="214" x2="137.12" y2="84.71"/></svg>